<svg xmlns="http://www.w3.org/2000/svg" id="Layer_1" data-name="Layer 1" viewBox="60.31 70.31 159.38 159.38"><defs><style>.cls-1{fill:#010101;}.cls-2{fill:#ee2353;}.cls-3{fill:#fff;}.cls-4{fill:#6bcad0;}</style></defs><title>tiktok icon</title><circle class="cls-1" cx="140" cy="150" r="79.69"/><path class="cls-2" d="M111.89,174.5l.22.63A3.54,3.54,0,0,0,111.89,174.5Zm8.94-14.45a9.61,9.61,0,0,1,10.29-8.88,9.93,9.93,0,0,1,2.16.41v-8.93a18.18,18.18,0,0,1,3.3.21v11.49a9.62,9.62,0,0,0-12,6.3,9.45,9.45,0,0,0-.41,2.17,10.52,10.52,0,0,0,1.85,6.39c-.39-.21-.76-.44-1.16-.7A9.78,9.78,0,0,1,120.83,160.05Zm34.5-33.94a15.81,15.81,0,0,1-3.8-7.79h3.15a14.67,14.67,0,0,0,3.89,10.53l.07.08a17.5,17.5,0,0,1-3.35-2.84Zm15.19,8.11v11.23a40,40,0,0,1-7-.94,26.94,26.94,0,0,1-6.8-2.8l-2-1.3v23.28a23.88,23.88,0,0,1-1.38,7.24,21.21,21.21,0,0,1-10.86,11.56,20.65,20.65,0,0,1-8.72,1.93,21.49,21.49,0,0,1-11.69-3.49,22.17,22.17,0,0,1-3.32-2.8h0a21.2,21.2,0,0,0,11.69,3.5,20.81,20.81,0,0,0,8.65-1.91,21.82,21.82,0,0,0,7-5.2,22.23,22.23,0,0,0,3.82-6.31,23.45,23.45,0,0,0,1.37-7.23V137.66c.16.08,2,1.3,2,1.3a26.57,26.57,0,0,0,6.79,2.82,40.24,40.24,0,0,0,7,.95v-8.84A10.84,10.84,0,0,0,170.52,134.22Z"/><path class="cls-3" d="M167.16,133.88v8.83a39.3,39.3,0,0,1-7-1,26.43,26.43,0,0,1-6.8-2.8s-1.85-1.22-2-1.3v23.28a23.46,23.46,0,0,1-1.38,7.23,20.85,20.85,0,0,1-10.84,11.51,20.89,20.89,0,0,1-8.66,1.91,21.49,21.49,0,0,1-11.69-3.49h0a20.1,20.1,0,0,1-4.75-7.51h0a22.63,22.63,0,0,1-1.23-7.52,20.32,20.32,0,0,1,2.53-9.52,22.4,22.4,0,0,1,4.88-6,21.29,21.29,0,0,1,5.82-3.41,19.67,19.67,0,0,1,7.22-1.5v8.93a9.59,9.59,0,0,0-8.45,16.89c.4.26.78.49,1.17.7a9,9,0,0,0,2.13,2.08,9.34,9.34,0,0,0,9.65.92,9.06,9.06,0,0,0,5-5.47,13.25,13.25,0,0,0,.51-4.52V118.35h8.26a15.8,15.8,0,0,0,3.79,7.79,18.26,18.26,0,0,0,3.36,2.84,17.44,17.44,0,0,0,4.62,3.48,17,17,0,0,0,3.9,1.41Z"/><path class="cls-4" d="M110.77,167.9l.21.6C111,168.43,110.88,168.22,110.77,167.9Z"/><path class="cls-4" d="M126.06,144.15a20.77,20.77,0,0,0-5.8,3.45,22.29,22.29,0,0,0-4.89,6,20.35,20.35,0,0,0-2.53,9.52,23.15,23.15,0,0,0,1.23,7.52h0a22.74,22.74,0,0,0,3.11,5.65,20.7,20.7,0,0,0,1.65,1.86,22.91,22.91,0,0,1-5-4.63,22.32,22.32,0,0,1-3.11-5.61h0a22.18,22.18,0,0,1-1.22-7.53,20.9,20.9,0,0,1,2.52-9.56,22.83,22.83,0,0,1,4.9-6,22.23,22.23,0,0,1,9.91-4.65,20.33,20.33,0,0,1,6.42-.1v2.59A19.55,19.55,0,0,0,126.06,144.15Z"/><path class="cls-4" d="M151.53,118.35h-8.28v43.87a13.76,13.76,0,0,1-.51,4.52,9.56,9.56,0,0,1-12.21,5.81,9.66,9.66,0,0,1-2.4-1.26,8.81,8.81,0,0,1-2.15-2.07A9.55,9.55,0,0,0,139.43,164a13.3,13.3,0,0,0,.51-4.52V115.58h11.41A10.32,10.32,0,0,0,151.53,118.35Zm15.59,13.1v2.43a17.46,17.46,0,0,1-3.9-1.4A18,18,0,0,1,158.6,129c.43.27.86.52,1.3.75a15.05,15.05,0,0,0,7.26,1.74Z"/></svg>